<?xml version="1.0" encoding="UTF-8"?>
<svg xmlns="http://www.w3.org/2000/svg" xmlns:xlink="http://www.w3.org/1999/xlink" width="32px" height="32px" viewBox="0 0 32 32" version="1.1">
<g id="surface1">
<path style=" stroke:none;fill-rule:nonzero;fill:rgb(25.098%,61.961%,100%);fill-opacity:1;" d="M 16 4 C 9.375 4 4 9.375 4 16 C 4 22.625 9.375 28 16 28 C 22.625 28 28 22.625 28 16 C 28 9.375 22.625 4 16 4 Z M 16 6 C 21.523 6 26 10.477 26 16 C 26 21.523 21.523 26 16 26 C 10.477 26 6 21.523 6 16 C 6 10.477 10.477 6 16 6 Z M 16 6 "/>
<path style=" stroke:none;fill-rule:nonzero;fill:rgb(25.098%,61.961%,100%);fill-opacity:1;" d="M 16 10 C 12.688 10 10 12.688 10 16 C 10 19.312 12.688 22 16 22 C 19.312 22 22 19.312 22 16 C 22 12.688 19.312 10 16 10 Z M 16 10 "/>
</g>
</svg>
